#!OML:ASF X:\für Bonn\!DataBase\2005_08_12_Daniel\c3d\Daniel.ASF
:FULLY-SPECIFIED
:DEGREES
16
root -20.6799 16.7965 24.1 -489.328 75.2976 -491.482
lowerback 16.8381 -2.63148 3.13625
upperback 4.67569 -2.73 -1.12018
thorax -4.6331 -1.24594 -2.40929
lowerneck 0.248469 12.0416 -3.93983
upperneck -1.34267 16.1397 -11.2748
head 0.214212 8.16699 -2.82531
rclavicle 3.97569e-014 -2.8625e-014
rhumerus -59.2408 6.55059 -82.0603
rradius 32.2187
rwrist 17.9321
rhand -29.4717 30.0965
rfingers 7.12502
rthumb -2.80723 0.135188
lclavicle 3.97569e-014 -2.8625e-014
lhumerus -34.2001 2.16298 84.7906
lradius 111.817
lwrist 10.7983
lhand -16.0853 -14.442
lfingers 7.12502
lthumb 10.1179 15.2947
rfemur -40.7305 -2.63386 28.4947
rtibia 76.1387
rfoot -4.47297 -3.23102
rtoes -13.052
lfemur 3.21455 -13.2314 -21.2209
ltibia 41.4612
lfoot -32.8776 -4.49684
ltoes 5.47291
17
root -20.4663 16.8691 24.0442 -489.771 74.7141 -491.995
lowerback 16.6225 -2.88661 3.43278
upperback 4.56184 -3.02424 -0.95556
thorax -4.66422 -1.39879 -2.34494
lowerneck 0.31054 12.264 -3.83148
upperneck -1.35205 16.4318 -11.3001
head 0.22475 8.31292 -2.84977
rclavicle 2.38542e-015 -1.59028e-015
rhumerus -60.5051 7.4289 -82.551
rradius 32.884
rwrist 17.2243
rhand -29.4268 30.4579
rfingers 7.12502
rthumb -2.76389 0.496056
lclavicle 2.38542e-015 -1.59028e-015
lhumerus -34.4956 2.34383 84.6684
lradius 112.801
lwrist 11.276
lhand -16.2961 -15.0988
lfingers 7.12502
lthumb 9.91447 14.6477
rfemur -40.5601 -2.47859 28.9438
rtibia 73.8232
rfoot -4.55574 -3.2099
rtoes -12.9397
lfemur 4.41256 -13.5071 -20.9857
ltibia 40.1225
lfoot -31.0971 -4.55265
ltoes 5.50236
18
root -20.2422 16.9499 23.9862 -490.241 74.1696 -492.569
lowerback 16.2947 -3.13142 3.69379
upperback 4.45042 -3.3187 -0.807565
thorax -4.63244 -1.55137 -2.28332
lowerneck 0.372024 12.4888 -3.68571
upperneck -1.33234 16.7313 -11.3301
head 0.249065 8.46074 -2.87944
rclavicle 1.03368e-014 1.90833e-014
rhumerus -61.6582 8.11643 -83.0392
rradius 33.4868
rwrist 16.4587
rhand -29.4476 30.7371
rfingers 7.12502
rthumb -2.78395 0.775506
lclavicle 1.03368e-014 1.90833e-014
lhumerus -34.8734 2.48075 84.5455
lradius 113.732
lwrist 11.949
lhand -16.4685 -15.6449
lfingers 7.12502
lthumb 9.74821 14.1095
rfemur -40.2413 -2.30641 29.3223
rtibia 71.2551
rfoot -4.67369 -3.20553
rtoes -13.1281
lfemur 5.50761 -13.7575 -20.7871
ltibia 38.8149
lfoot -29.1041 -4.64296
ltoes 5.81799
19
root -20.0127 17.0361 23.9258 -490.643 73.6359 -493.07
lowerback 15.9539 -3.36756 3.92026
upperback 4.34778 -3.60757 -0.631061
thorax -4.58046 -1.70029 -2.176
lowerneck 0.400214 12.7163 -3.52766
upperneck -1.28755 17.0429 -11.4106
head 0.294092 8.61294 -2.92235
rclavicle -3.97569e-015 7.95139e-015
rhumerus -62.6402 8.74223 -83.4961
rradius 33.9811
rwrist 15.6144
rhand -29.5639 30.9111
rfingers 7.12502
rthumb -2.89631 0.950984
lclavicle -3.97569e-015 7.95139e-015
lhumerus -35.3127 2.61917 84.4644
lradius 114.601
lwrist 12.6195
lhand -16.6446 -16.1151
lfingers 7.12502
lthumb 9.5783 13.6472
rfemur -39.7489 -2.08964 29.6771
rtibia 68.4493
rfoot -4.83886 -3.13775
rtoes -13.6306
lfemur 6.51434 -13.9002 -20.5435
ltibia 37.6146
lfoot -27.0148 -4.83028
ltoes 6.08393
20
root -19.7823 17.1241 23.8653 -491.029 73.1291 -493.586
lowerback 15.5859 -3.58405 4.13348
upperback 4.24456 -3.87785 -0.488607
thorax -4.51447 -1.83997 -2.10437
lowerneck 0.392061 12.9423 -3.29327
upperneck -1.20176 17.3593 -11.4717
head 0.364262 8.76344 -2.96477
rclavicle 3.97569e-015 -4.77083e-015
rhumerus -63.6128 9.19346 -83.9399
rradius 34.5558
rwrist 14.6794
rhand -29.6386 31.0596
rfingers 7.12502
rthumb -2.96845 1.10051
lclavicle 3.97569e-015 -4.77083e-015
lhumerus -35.6963 2.62309 84.3123
lradius 115.355
lwrist 13.4256
lhand -16.7872 -16.4663
lfingers 7.12502
lthumb 9.44064 13.3022
rfemur -39.181 -1.87414 29.9813
rtibia 65.4723
rfoot -5.09776 -2.91926
rtoes -14.1413
lfemur 7.35413 -13.9271 -20.2581
ltibia 36.5481
lfoot -24.8066 -5.11391
ltoes 6.50085
21
root -19.5534 17.2043 23.8046 -491.369 72.6557 -494.063
lowerback 15.1971 -3.78424 4.32883
upperback 4.15113 -4.13164 -0.340792
thorax -4.42411 -1.97072 -2.02402
lowerneck 0.378349 13.147 -3.12927
upperneck -1.10642 17.6487 -11.5228
head 0.430835 8.90065 -2.99285
rclavicle 2.78299e-014 1.59028e-014
rhumerus -64.7571 9.81342 -84.5468
rradius 35.3961
rwrist 13.3689
rhand -29.8382 31.1871
rfingers 7.12502
rthumb -3.16124 1.23074
lclavicle 2.78299e-014 1.59028e-014
lhumerus -36.0833 2.56575 84.1954
lradius 116.032
lwrist 14.0998
lhand -16.9396 -16.6688
lfingers 7.12502
lthumb 9.29363 13.1064
rfemur -38.5129 -1.62995 30.2417
rtibia 62.3539
rfoot -5.36624 -2.64115
rtoes -14.8283
lfemur 8.0589 -13.9044 -19.9819
ltibia 35.658
lfoot -22.487 -5.39456
ltoes 6.83339
22
root -19.3237 17.2869 23.7411 -491.765 72.216 -494.594
lowerback 14.8471 -3.97662 4.50351
upperback 4.02971 -4.3785 -0.197825
thorax -4.38237 -2.09934 -1.93764
lowerneck 0.38891 13.3521 -2.96101
upperneck -0.974098 17.9429 -11.5909
head 0.508435 9.03948 -3.02643
rclavicle 4.73108e-014 -4.6118e-014
rhumerus -66.0347 10.5375 -85.2838
rradius 36.3649
rwrist 11.6938
rhand -30.0938 31.3578
rfingers 7.12502
rthumb -3.40805 1.4053
lclavicle 4.73108e-014 -4.6118e-014
lhumerus -36.5323 2.42542 84.0808
lradius 116.66
lwrist 14.6913
lhand -17.0542 -16.6861
lfingers 7.12502
lthumb 9.18306 13.0939
rfemur -37.7945 -1.41103 30.4295
rtibia 59.2055
rfoot -5.63299 -2.3379
rtoes -16.0229
lfemur 8.66163 -13.8624 -19.7483
ltibia 34.9255
lfoot -20.0629 -5.65484
ltoes 7.23896
23
root -19.0924 17.3663 23.6758 -492.142 71.8012 -495.187
lowerback 14.4308 -4.16424 4.63685
upperback 3.88077 -4.63196 -0.0549465
thorax -4.33083 -2.23229 -1.8319
lowerneck 0.296996 13.5668 -2.67755
upperneck -0.658304 18.2827 -11.7029
head 0.68112 9.18829 -3.07141
rclavicle -2.38542e-015 -3.18055e-015
rhumerus -67.2003 11.1417 -85.924
rradius 37.2549
rwrist 10.0406
rhand -30.3859 31.6382
rfingers 7.12502
rthumb -3.6901 1.69043
lclavicle -2.38542e-015 -3.18055e-015
lhumerus -37.0316 2.22483 83.9446
lradius 117.164
lwrist 15.1346
lhand -17.2093 -16.6363
lfingers 7.12502
lthumb 9.03336 13.1503
rfemur -37.0939 -1.1375 30.5452
rtibia 56.0327
rfoot -5.93293 -2.04175
rtoes -17.3905
lfemur 9.06843 -13.7873 -19.5216
ltibia 34.3656
lfoot -17.5461 -5.86699
ltoes 7.63484
24
root -18.8564 17.4383 23.6083 -492.46 71.4414 -495.796
lowerback 13.9199 -4.31013 4.73464
upperback 3.73088 -4.84399 0.0747485
thorax -4.22365 -2.34444 -1.73663
lowerneck 0.00678052 13.7666 -2.23552
upperneck -0.145893 18.6437 -11.8741
head 0.976173 9.33138 -3.13049
rclavicle -3.02153e-014 4.77083e-015
rhumerus -68.2096 11.4409 -86.3635
rradius 38.071
rwrist 8.50545
rhand -30.6942 31.9592
rfingers 7.12502
rthumb -3.98782 2.01681
lclavicle -3.02153e-014 4.77083e-015
lhumerus -37.6032 1.84848 83.8249
lradius 117.574
lwrist 15.4316
lhand -17.4293 -16.4549
lfingers 7.12502
lthumb 8.82104 13.3407
rfemur -36.4151 -0.799198 30.5904
rtibia 52.9029
rfoot -6.34633 -1.66614
rtoes -19.284
lfemur 9.3317 -13.6697 -19.3373
ltibia 33.9509
lfoot -15.0032 -6.01909
ltoes 8.00473
25
root -18.6174 17.5022 23.5383 -492.745 71.0929 -496.417
lowerback 13.3682 -4.44648 4.84893
upperback 3.54722 -5.04692 0.188144
thorax -4.13095 -2.45387 -1.6733
lowerneck -0.26768 13.9556 -1.64886
upperneck 0.429364 19.0027 -12.1273
head 1.31819 9.47108 -3.23393
rclavicle 2.98177e-014 -7.95139e-015
rhumerus -69.1475 11.493 -86.6328
rradius 38.8927
rwrist 7.07307
rhand -30.9386 32.2056
rfingers 7.12502
rthumb -4.22381 2.26775
lclavicle 2.98177e-014 -7.95139e-015
lhumerus -38.2673 1.38569 83.7035
lradius 117.817
lwrist 15.5645
lhand -17.5844 -16.2887
lfingers 7.12502
lthumb 8.67141 13.5132
rfemur -35.751 -0.393424 30.5725
rtibia 49.8264
rfoot -6.87628 -1.26817
rtoes -21.6423
lfemur 9.44912 -13.5448 -19.1782
ltibia 33.746
lfoot -12.5424 -6.08417
ltoes 8.07046
